<?xml version="1.0" encoding="UTF-8"?>
<svg id="Layer_1" data-name="Layer 1" xmlns="http://www.w3.org/2000/svg" viewBox="0 0 194.68 41.15">
  <defs>
    <style>
      .cls-1 {
        stroke-width: 1.18px;
      }

      .cls-1, .cls-2, .cls-3 {
        fill: none;
        stroke: #fff;
        stroke-miterlimit: 10;
      }

      .cls-2 {
        stroke-width: 1.4px;
      }

      .cls-3 {
        stroke-width: 1.3px;
      }

      .cls-4 {
        fill: #fff;
        stroke-width: 0px;
      }
    </style>
  </defs>
  <line class="cls-1" x1="55.39" y1="11.41" x2="68.34" y2="11.41"/>
  <line class="cls-3" x1="73.44" y1="11.41" x2="89.14" y2="11.41"/>
  <line class="cls-3" x1="81.29" y1="10.73" x2="81.29" y2="30.56"/>
  <line class="cls-3" x1="95.48" y1="10.73" x2="95.48" y2="30.56"/>
  <line class="cls-1" x1="55.39" y1="20.64" x2="68.34" y2="20.64"/>
  <line class="cls-1" x1="55.39" y1="29.87" x2="68.34" y2="29.87"/>
  <path class="cls-3" d="M120.22,28.32c-1.71,1.4-3.9,2.24-6.28,2.24-5.48,0-9.92-4.44-9.92-9.92s4.44-9.92,9.92-9.92c2.38,0,4.57.84,6.28,2.24"/>
  <path class="cls-3" d="M127.72,11.41h8.75c3.31,0,5.99,2.68,5.99,5.99h0c0,3.31-2.68,5.99-5.99,5.99h-7.57v7.16"/>
  <path class="cls-3" d="M149.87,11.41h8.75c3.31,0,5.99,2.68,5.99,5.99h0c0,3.31-2.68,5.99-5.99,5.99h-7.57v7.16"/>
  <line class="cls-3" x1="159.82" y1="23.28" x2="164.61" y2="30.56"/>
  <circle class="cls-2" cx="181.3" cy="20.64" r="9.92"/>
  <path class="cls-4" d="M38.65,23.46v-5.63h-3.97c-.36-1.79-1.07-3.46-2.05-4.93l2.81-2.81-3.98-3.98-2.81,2.81c-1.47-.98-3.14-1.68-4.93-2.05v-3.97h-5.63v3.97c-1.79.36-3.46,1.07-4.93,2.05l-2.81-2.81-3.98,3.98,2.81,2.81c-.98,1.47-1.68,3.14-2.05,4.93h-3.97v5.63h3.97c.36,1.79,1.07,3.46,2.05,4.93l-2.81,2.81,3.98,3.98,2.81-2.81c1.47.98,3.14,1.68,4.93,2.05v3.97h5.63v-3.97c1.79-.36,3.46-1.07,4.93-2.05l2.81,2.81,3.98-3.98-2.81-2.81c.98-1.47,1.68-3.14,2.05-4.93h3.97ZM19.87,24.79l-.03-.03-.57.56-4.19-4.21,2.14-2.13,2.09,2.11,5.28-5.24,2.13,2.14-6.85,6.81Z"/>
  <path class="cls-4" d="M41.79,37.04c0-1.86,1.5-3.36,3.36-3.36s3.36,1.5,3.36,3.36-1.5,3.36-3.36,3.36-3.36-1.5-3.36-3.36ZM47.89,37.04c0-1.51-1.22-2.74-2.74-2.74s-2.74,1.22-2.74,2.74,1.22,2.74,2.74,2.74,2.74-1.22,2.74-2.74ZM44.01,35.46h1.49c.47,0,.97.34.97.97,0,.42-.23.74-.53.9l.66,1.23h-.61l-.58-1.11h-.85v1.11h-.54v-3.1ZM45.32,37.02c.29,0,.55-.21.55-.59s-.27-.55-.54-.55h-.78v1.14h.77Z"/>
</svg>