<?xml version="1.0" encoding="UTF-8"?>
<svg id="Layer_1" data-name="Layer 1" xmlns="http://www.w3.org/2000/svg" viewBox="0 0 235 52.89">
  <defs>
    <style>
      .cls-1 {
        fill: #2b4792;
        stroke-width: 0px;
      }
    </style>
  </defs>
  <rect class="cls-1" x="65.16" y="14.99" width="15.38" height="1.4"/>
  <rect class="cls-1" x="86.6" y="14.92" width="18.65" height="1.55"/>
  <rect class="cls-1" x="95.15" y="14.88" width="1.55" height="23.56"/>
  <rect class="cls-1" x="112.01" y="14.88" width="1.55" height="23.56"/>
  <rect class="cls-1" x="65.16" y="25.96" width="15.38" height="1.4"/>
  <rect class="cls-1" x="65.16" y="36.92" width="15.38" height="1.4"/>
  <path class="cls-1" d="M134.71,39.21c-6.92,0-12.55-5.63-12.55-12.55s5.63-12.55,12.55-12.55c2.89,0,5.71,1.01,7.95,2.83l-.98,1.2c-1.96-1.6-4.43-2.48-6.97-2.48-6.07,0-11.01,4.94-11.01,11.01s4.94,11.01,11.01,11.01c2.54,0,5.01-.88,6.97-2.49l.98,1.2c-2.23,1.83-5.06,2.84-7.95,2.84Z"/>
  <path class="cls-1" d="M153.25,38.44h-1.55v-9.28h9.76c3.5,0,6.34-2.85,6.34-6.35s-2.85-6.34-6.34-6.34h-10.39v-1.55h10.39c4.35,0,7.89,3.54,7.89,7.89s-3.54,7.89-7.89,7.89h-8.21v7.74Z"/>
  <path class="cls-1" d="M179.56,38.44h-1.55v-9.28h9.76c3.5,0,6.34-2.85,6.34-6.35s-2.85-6.34-6.34-6.34h-10.39v-1.55h10.39c4.35,0,7.89,3.54,7.89,7.89s-3.54,7.89-7.89,7.89h-8.21v7.74Z"/>
  <rect class="cls-1" x="191.27" y="28.94" width="1.55" height="10.36" transform="translate(12.88 111.22) rotate(-33.36)"/>
  <path class="cls-1" d="M214.72,39.27c-6.95,0-12.61-5.66-12.61-12.61s5.66-12.61,12.61-12.61,12.61,5.66,12.61,12.61-5.66,12.61-12.61,12.61ZM214.72,15.71c-6.04,0-10.95,4.91-10.95,10.95s4.91,10.95,10.95,10.95,10.95-4.91,10.95-10.95-4.91-10.95-10.95-10.95Z"/>
  <path class="cls-1" d="M45.27,30v-6.69h-4.71c-.43-2.13-1.27-4.11-2.43-5.86l3.34-3.34-4.73-4.73-3.34,3.34c-1.75-1.16-3.73-2-5.86-2.43v-4.72h-6.69v4.72c-2.13.43-4.11,1.27-5.86,2.43l-3.34-3.34-4.73,4.73,3.34,3.34c-1.16,1.75-2,3.73-2.43,5.86H3.12v6.69h4.72c.43,2.13,1.27,4.11,2.43,5.86l-3.34,3.34,4.73,4.73,3.34-3.34c1.75,1.16,3.73,2,5.86,2.43v4.71h6.69v-4.71c2.13-.43,4.11-1.27,5.86-2.43l3.34,3.34,4.73-4.73-3.34-3.34c1.16-1.75,2-3.73,2.43-5.86h4.71ZM22.97,31.58l-.04-.04-.67.67-4.97-5,2.54-2.53,2.49,2.5,6.27-6.23,2.53,2.54-8.13,8.08Z"/>
  <path class="cls-1" d="M49,46.14c0-2.21,1.79-3.99,3.99-3.99s3.99,1.79,3.99,3.99-1.79,3.99-3.99,3.99-3.99-1.79-3.99-3.99ZM56.24,46.14c0-1.8-1.45-3.25-3.25-3.25s-3.25,1.45-3.25,3.25,1.45,3.25,3.25,3.25,3.25-1.45,3.25-3.25ZM51.64,44.25h1.77c.55,0,1.15.4,1.15,1.15,0,.5-.27.88-.63,1.07l.78,1.46h-.72l-.69-1.32h-1.01v1.32h-.64v-3.68ZM53.2,46.11c.34,0,.66-.25.66-.7s-.32-.65-.64-.65h-.93v1.35h.91Z"/>
</svg>