<?xml version="1.0" encoding="UTF-8"?>
<svg id="Layer_1" data-name="Layer 1" xmlns="http://www.w3.org/2000/svg" xmlns:xlink="http://www.w3.org/1999/xlink" viewBox="0 0 31 31.08">
  <defs>
    <style>
      .cls-1 {
        clip-path: url(#clippath);
      }

      .cls-2 {
        fill: none;
      }

      .cls-2, .cls-3 {
        stroke-width: 0px;
      }

      .cls-3 {
        fill: #fff;
        fill-rule: evenodd;
      }
    </style>
    <clipPath id="clippath">
      <rect class="cls-2" x="1.78" y="1.82" width="27.44" height="27.44" rx="3.03" ry="3.03"/>
    </clipPath>
  </defs>
  <g class="cls-1">
    <g>
      <path class="cls-3" d="M16.64,14.15v-.04s-.02.03-.03.04h.03Z"/>
      <path class="cls-3" d="M1.78,1.82v27.44h27.44V1.82H1.78ZM10.31,24.62h-4.07v-12.25h4.07v12.25ZM8.28,10.7h-.03c-1.37,0-2.25-.94-2.25-2.12s.91-2.12,2.3-2.12,2.25.91,2.28,2.12c0,1.18-.88,2.12-2.3,2.12ZM25,24.62h-4.07v-6.55c0-1.65-.59-2.77-2.06-2.77-1.13,0-1.79.76-2.09,1.49-.11.26-.14.63-.14.99v6.84h-4.07s.05-11.1,0-12.25h4.07v1.74c.54-.83,1.51-2.02,3.67-2.02,2.68,0,4.69,1.75,4.69,5.51v7.02Z"/>
    </g>
  </g>
</svg>