<?xml version="1.0" encoding="UTF-8"?>
<svg id="Layer_1" data-name="Layer 1" xmlns="http://www.w3.org/2000/svg" viewBox="0 0 31 31.08">
  <defs>
    <style>
      .cls-1 {
        fill: #fff;
        stroke-width: 0px;
      }
    </style>
  </defs>
  <g id="Ftq0WI.tif">
    <g>
      <path class="cls-1" d="M14.72,1.36c.55,0,1.11,0,1.66,0,.08.02.16.04.24.05.78.12,1.58.19,2.34.38,3.88.99,6.84,3.24,8.81,6.71,2.01,3.54,2.39,7.31,1.16,11.19-1.19,3.75-3.61,6.53-7.13,8.31-2.5,1.27-5.17,1.69-7.95,1.37-1.69-.2-3.29-.71-4.8-1.49-.12-.06-.3-.08-.44-.05-2.41.62-4.83,1.26-7.24,1.89,0-.02,0-.04,0-.06.02-.04.05-.07.06-.12.64-2.32,1.27-4.63,1.9-6.95.03-.1,0-.23-.05-.33-.27-.6-.6-1.19-.83-1.8-1.09-2.85-1.25-5.77-.45-8.71.76-2.82,2.28-5.18,4.51-7.07,2.03-1.71,4.36-2.77,6.98-3.16.41-.06.82-.11,1.23-.16ZM4.76,26.37c.13-.03.2-.04.27-.05,1.28-.34,2.57-.67,3.85-1.01.21-.06.37-.04.57.08,2.32,1.39,4.83,1.98,7.53,1.63,3.51-.45,6.28-2.18,8.26-5.08,1.74-2.54,2.36-5.39,1.83-8.43-.62-3.61-2.55-6.34-5.69-8.2-2.28-1.35-4.77-1.79-7.4-1.45-1.84.24-3.51.9-5.03,1.95-1.79,1.24-3.14,2.86-4.05,4.84-.94,2.06-1.22,4.22-.91,6.45.24,1.73.88,3.32,1.82,4.8.07.11.08.28.05.41-.15.62-.33,1.23-.5,1.84-.2.73-.39,1.45-.61,2.23Z"/>
      <path class="cls-1" d="M11.04,8.94c.58-.14.87.24,1.09.81.3.8.64,1.59.98,2.37.12.28.13.54-.04.78-.27.37-.55.74-.84,1.1-.23.28-.26.43-.07.75,1.15,1.92,2.74,3.33,4.84,4.16.3.12.52.04.71-.19.34-.42.68-.85,1.02-1.27.26-.32.42-.4.79-.23.95.44,1.9.9,2.84,1.35.24.12.32.32.32.59-.01,1.82-1.33,2.71-2.83,2.97-1.25.21-2.38-.26-3.51-.69-2.05-.8-3.71-2.14-5.13-3.79-.77-.89-1.5-1.8-2.06-2.84-.68-1.26-.98-2.56-.47-3.96.24-.66.65-1.2,1.17-1.65.26-.22.51-.27,1.2-.26Z"/>
    </g>
  </g>
</svg>